<?xml version="1.0" encoding="UTF-8" standalone="no"?>
<!DOCTYPE svg PUBLIC "-//W3C//DTD SVG 1.1//EN"
 "http://www.w3.org/Graphics/SVG/1.1/DTD/svg11.dtd">
<!-- Generated by graphviz version 2.40.1 (20161225.0304)
 -->
<!-- Title: dependencies Pages: 1 -->
<svg width="3697pt" height="284pt"
 viewBox="0.00 0.00 3697.00 284.00" xmlns="http://www.w3.org/2000/svg" xmlns:xlink="http://www.w3.org/1999/xlink">
<g id="graph0" class="graph" transform="scale(1 1) rotate(0) translate(4 280)">
<title>dependencies</title>
<polygon fill="#ffffff" stroke="transparent" points="-4,4 -4,-280 3693,-280 3693,4 -4,4"/>
<text text-anchor="start" x="1823.5091" y="-42.4" font-family="sans-serif" font-weight="bold" font-size="14.00" fill="#000000">Legend</text>
<polygon fill="#ffffb3" stroke="transparent" points="1610.5,-10 1610.5,-30 1630.5,-30 1630.5,-10 1610.5,-10"/>
<text text-anchor="start" x="1634.129" y="-15.4" font-family="sans-serif" font-size="14.00" fill="#000000"> &#160;Declarations</text>
<polygon fill="#8dd3c7" stroke="transparent" points="1723.5,-10 1723.5,-30 1743.5,-30 1743.5,-10 1723.5,-10"/>
<text text-anchor="start" x="1747.2251" y="-15.4" font-family="sans-serif" font-size="14.00" fill="#000000"> &#160;Module</text>
<polygon fill="#80b1d3" stroke="transparent" points="1809.5,-10 1809.5,-30 1829.5,-30 1829.5,-10 1809.5,-10"/>
<text text-anchor="start" x="1833.2812" y="-15.4" font-family="sans-serif" font-size="14.00" fill="#000000"> &#160;Bootstrap</text>
<polygon fill="#fdb462" stroke="transparent" points="1906.5,-10 1906.5,-30 1926.5,-30 1926.5,-10 1906.5,-10"/>
<text text-anchor="start" x="1930.1732" y="-15.4" font-family="sans-serif" font-size="14.00" fill="#000000"> &#160;Providers</text>
<polygon fill="#fb8072" stroke="transparent" points="2002.5,-10 2002.5,-30 2022.5,-30 2022.5,-10 2002.5,-10"/>
<text text-anchor="start" x="2026.2258" y="-15.4" font-family="sans-serif" font-size="14.00" fill="#000000"> &#160;Exports</text>
<g id="clust1" class="cluster">
<title>cluster_AppModule</title>
<polygon fill="none" stroke="#000000" stroke-dasharray="1,5" points="8,-70 8,-268 3681,-268 3681,-70 8,-70"/>
</g>
<g id="clust2" class="cluster">
<title>cluster_AppModule_declarations</title>
<polygon fill="none" stroke="#000000" points="168,-78 168,-130 3673,-130 3673,-78 168,-78"/>
</g>
<g id="clust27" class="cluster">
<title>cluster_AppModule_imports</title>
<polygon fill="none" stroke="#000000" points="16,-78 16,-130 160,-130 160,-78 16,-78"/>
</g>
<g id="clust29" class="cluster">
<title>cluster_AppModule_bootstrap</title>
<polygon fill="none" stroke="#000000" points="1771,-208 1771,-260 1895,-260 1895,-208 1771,-208"/>
</g>
<!-- AppComponent -->
<g id="node1" class="node">
<title>AppComponent</title>
<polygon fill="#ffffb3" stroke="#000000" points="3664.9399,-122 3559.0601,-122 3559.0601,-86 3664.9399,-86 3664.9399,-122"/>
<text text-anchor="middle" x="3612" y="-99.8" font-family="Times,serif" font-size="14.00" fill="#000000">AppComponent</text>
</g>
<!-- AppModule -->
<g id="node25" class="node">
<title>AppModule</title>
<polygon fill="#8dd3c7" stroke="#000000" points="1874.6571,-187 1871.6571,-191 1850.6571,-191 1847.6571,-187 1791.3429,-187 1791.3429,-151 1874.6571,-151 1874.6571,-187"/>
<text text-anchor="middle" x="1833" y="-164.8" font-family="Times,serif" font-size="14.00" fill="#000000">AppModule</text>
</g>
<!-- AppComponent&#45;&gt;AppModule -->
<g id="edge1" class="edge">
<title>AppComponent&#45;&gt;AppModule</title>
<path fill="none" stroke="#000000" d="M3612,-122.3802C3612,-146.2785 3612,-185 3612,-185 3612,-185 1884.7874,-185 1884.7874,-185"/>
<polygon fill="#000000" stroke="#000000" points="1884.7874,-181.5001 1874.7874,-185 1884.7873,-188.5001 1884.7874,-181.5001"/>
</g>
<!-- BeedrilComponent -->
<g id="node2" class="node">
<title>BeedrilComponent</title>
<polygon fill="#ffffb3" stroke="#000000" points="3541.0409,-122 3418.9591,-122 3418.9591,-86 3541.0409,-86 3541.0409,-122"/>
<text text-anchor="middle" x="3480" y="-99.8" font-family="Times,serif" font-size="14.00" fill="#000000">BeedrilComponent</text>
</g>
<!-- BeedrilComponent&#45;&gt;AppModule -->
<g id="edge2" class="edge">
<title>BeedrilComponent&#45;&gt;AppModule</title>
<path fill="none" stroke="#000000" d="M3480,-122.0908C3480,-145.1328 3480,-182 3480,-182 3480,-182 1884.951,-182 1884.951,-182"/>
<polygon fill="#000000" stroke="#000000" points="1884.9511,-178.5001 1874.951,-182 1884.951,-185.5001 1884.9511,-178.5001"/>
</g>
<!-- BlastoiseComponent -->
<g id="node3" class="node">
<title>BlastoiseComponent</title>
<polygon fill="#ffffb3" stroke="#000000" points="3400.1596,-122 3267.8404,-122 3267.8404,-86 3400.1596,-86 3400.1596,-122"/>
<text text-anchor="middle" x="3334" y="-99.8" font-family="Times,serif" font-size="14.00" fill="#000000">BlastoiseComponent</text>
</g>
<!-- BlastoiseComponent&#45;&gt;AppModule -->
<g id="edge3" class="edge">
<title>BlastoiseComponent&#45;&gt;AppModule</title>
<path fill="none" stroke="#000000" d="M3334,-122.1554C3334,-144.3519 3334,-179 3334,-179 3334,-179 1884.7119,-179 1884.7119,-179"/>
<polygon fill="#000000" stroke="#000000" points="1884.712,-175.5001 1874.7119,-179 1884.7119,-182.5001 1884.712,-175.5001"/>
</g>
<!-- BulbasaurComponent -->
<g id="node4" class="node">
<title>BulbasaurComponent</title>
<polygon fill="#ffffb3" stroke="#000000" points="3250.094,-122 3111.906,-122 3111.906,-86 3250.094,-86 3250.094,-122"/>
<text text-anchor="middle" x="3181" y="-99.8" font-family="Times,serif" font-size="14.00" fill="#000000">BulbasaurComponent</text>
</g>
<!-- BulbasaurComponent&#45;&gt;AppModule -->
<g id="edge4" class="edge">
<title>BulbasaurComponent&#45;&gt;AppModule</title>
<path fill="none" stroke="#000000" d="M3181,-122.1686C3181,-143.498 3181,-176 3181,-176 3181,-176 1884.8211,-176 1884.8211,-176"/>
<polygon fill="#000000" stroke="#000000" points="1884.8212,-172.5001 1874.8211,-176 1884.8211,-179.5001 1884.8212,-172.5001"/>
</g>
<!-- ButterfreeComponent -->
<g id="node5" class="node">
<title>ButterfreeComponent</title>
<polygon fill="#ffffb3" stroke="#000000" points="3094.0758,-122 2955.9242,-122 2955.9242,-86 3094.0758,-86 3094.0758,-122"/>
<text text-anchor="middle" x="3025" y="-99.8" font-family="Times,serif" font-size="14.00" fill="#000000">ButterfreeComponent</text>
</g>
<!-- ButterfreeComponent&#45;&gt;AppModule -->
<g id="edge5" class="edge">
<title>ButterfreeComponent&#45;&gt;AppModule</title>
<path fill="none" stroke="#000000" d="M3025,-122.0267C3025,-142.7672 3025,-174 3025,-174 3025,-174 1884.725,-174 1884.725,-174"/>
<polygon fill="#000000" stroke="#000000" points="1884.725,-170.5001 1874.725,-174 1884.7249,-177.5001 1884.725,-170.5001"/>
</g>
<!-- CaterpieComponent -->
<g id="node6" class="node">
<title>CaterpieComponent</title>
<polygon fill="#ffffb3" stroke="#000000" points="2938.2548,-122 2809.7452,-122 2809.7452,-86 2938.2548,-86 2938.2548,-122"/>
<text text-anchor="middle" x="2874" y="-99.8" font-family="Times,serif" font-size="14.00" fill="#000000">CaterpieComponent</text>
</g>
<!-- CaterpieComponent&#45;&gt;AppModule -->
<g id="edge6" class="edge">
<title>CaterpieComponent&#45;&gt;AppModule</title>
<path fill="none" stroke="#000000" d="M2874,-122.308C2874,-142.1455 2874,-171 2874,-171 2874,-171 1884.7737,-171 1884.7737,-171"/>
<polygon fill="#000000" stroke="#000000" points="1884.7738,-167.5001 1874.7737,-171 1884.7737,-174.5001 1884.7738,-167.5001"/>
</g>
<!-- ChamanderComponent -->
<g id="node7" class="node">
<title>ChamanderComponent</title>
<polygon fill="#ffffb3" stroke="#000000" points="2791.8641,-122 2646.1359,-122 2646.1359,-86 2791.8641,-86 2791.8641,-122"/>
<text text-anchor="middle" x="2719" y="-99.8" font-family="Times,serif" font-size="14.00" fill="#000000">ChamanderComponent</text>
</g>
<!-- ChamanderComponent&#45;&gt;AppModule -->
<g id="edge7" class="edge">
<title>ChamanderComponent&#45;&gt;AppModule</title>
<path fill="none" stroke="#000000" d="M2719,-122.1686C2719,-141.0898 2719,-168 2719,-168 2719,-168 1884.8409,-168 1884.8409,-168"/>
<polygon fill="#000000" stroke="#000000" points="1884.841,-164.5001 1874.8409,-168 1884.8409,-171.5001 1884.841,-164.5001"/>
</g>
<!-- CharizardComponent -->
<g id="node8" class="node">
<title>CharizardComponent</title>
<polygon fill="#ffffb3" stroke="#000000" points="2628.0254,-122 2491.9746,-122 2491.9746,-86 2628.0254,-86 2628.0254,-122"/>
<text text-anchor="middle" x="2560" y="-99.8" font-family="Times,serif" font-size="14.00" fill="#000000">CharizardComponent</text>
</g>
<!-- CharizardComponent&#45;&gt;AppModule -->
<g id="edge8" class="edge">
<title>CharizardComponent&#45;&gt;AppModule</title>
<path fill="none" stroke="#000000" d="M2560,-122.302C2560,-140.2699 2560,-165 2560,-165 2560,-165 1884.6978,-165 1884.6978,-165"/>
<polygon fill="#000000" stroke="#000000" points="1884.6979,-161.5001 1874.6978,-165 1884.6978,-168.5001 1884.6979,-161.5001"/>
</g>
<!-- CharmeleonComponent -->
<g id="node9" class="node">
<title>CharmeleonComponent</title>
<polygon fill="#ffffb3" stroke="#000000" points="2473.7548,-122 2324.2452,-122 2324.2452,-86 2473.7548,-86 2473.7548,-122"/>
<text text-anchor="middle" x="2399" y="-99.8" font-family="Times,serif" font-size="14.00" fill="#000000">CharmeleonComponent</text>
</g>
<!-- CharmeleonComponent&#45;&gt;AppModule -->
<g id="edge9" class="edge">
<title>CharmeleonComponent&#45;&gt;AppModule</title>
<path fill="none" stroke="#000000" d="M2399,-122.0225C2399,-139.3734 2399,-163 2399,-163 2399,-163 1885.0796,-163 1885.0796,-163"/>
<polygon fill="#000000" stroke="#000000" points="1885.0796,-159.5001 1875.0796,-163 1885.0795,-166.5001 1885.0796,-159.5001"/>
</g>
<!-- FooterComponent -->
<g id="node10" class="node">
<title>FooterComponent</title>
<polygon fill="#ffffb3" stroke="#000000" points="2305.8809,-122 2188.1191,-122 2188.1191,-86 2305.8809,-86 2305.8809,-122"/>
<text text-anchor="middle" x="2247" y="-99.8" font-family="Times,serif" font-size="14.00" fill="#000000">FooterComponent</text>
</g>
<!-- FooterComponent&#45;&gt;AppModule -->
<g id="edge10" class="edge">
<title>FooterComponent&#45;&gt;AppModule</title>
<path fill="none" stroke="#000000" d="M2247,-122.027C2247,-138.3976 2247,-160 2247,-160 2247,-160 1884.9748,-160 1884.9748,-160"/>
<polygon fill="#000000" stroke="#000000" points="1884.9749,-156.5001 1874.9748,-160 1884.9748,-163.5001 1884.9749,-156.5001"/>
</g>
<!-- HomeComponent -->
<g id="node11" class="node">
<title>HomeComponent</title>
<polygon fill="#ffffb3" stroke="#000000" points="2169.5451,-122 2054.4549,-122 2054.4549,-86 2169.5451,-86 2169.5451,-122"/>
<text text-anchor="middle" x="2112" y="-99.8" font-family="Times,serif" font-size="14.00" fill="#000000">HomeComponent</text>
</g>
<!-- HomeComponent&#45;&gt;AppModule -->
<g id="edge11" class="edge">
<title>HomeComponent&#45;&gt;AppModule</title>
<path fill="none" stroke="#000000" d="M2112,-122.2396C2112,-137.5706 2112,-157 2112,-157 2112,-157 1884.7691,-157 1884.7691,-157"/>
<polygon fill="#000000" stroke="#000000" points="1884.7692,-153.5001 1874.7691,-157 1884.7691,-160.5001 1884.7692,-153.5001"/>
</g>
<!-- IvysaurComponent -->
<g id="node12" class="node">
<title>IvysaurComponent</title>
<polygon fill="#ffffb3" stroke="#000000" points="2036.8132,-122 1913.1868,-122 1913.1868,-86 2036.8132,-86 2036.8132,-122"/>
<text text-anchor="middle" x="1975" y="-99.8" font-family="Times,serif" font-size="14.00" fill="#000000">IvysaurComponent</text>
</g>
<!-- IvysaurComponent&#45;&gt;AppModule -->
<g id="edge12" class="edge">
<title>IvysaurComponent&#45;&gt;AppModule</title>
<path fill="none" stroke="#000000" d="M1975,-122.0511C1975,-136.373 1975,-154 1975,-154 1975,-154 1884.8367,-154 1884.8367,-154"/>
<polygon fill="#000000" stroke="#000000" points="1884.8367,-150.5001 1874.8367,-154 1884.8366,-157.5001 1884.8367,-150.5001"/>
</g>
<!-- KakunaComponent -->
<g id="node13" class="node">
<title>KakunaComponent</title>
<polygon fill="#ffffb3" stroke="#000000" points="1895.3683,-122 1770.6317,-122 1770.6317,-86 1895.3683,-86 1895.3683,-122"/>
<text text-anchor="middle" x="1833" y="-99.8" font-family="Times,serif" font-size="14.00" fill="#000000">KakunaComponent</text>
</g>
<!-- KakunaComponent&#45;&gt;AppModule -->
<g id="edge13" class="edge">
<title>KakunaComponent&#45;&gt;AppModule</title>
<path fill="none" stroke="#000000" d="M1833,-122.1061C1833,-122.1061 1833,-140.991 1833,-140.991"/>
<polygon fill="#000000" stroke="#000000" points="1829.5001,-140.9909 1833,-150.991 1836.5001,-140.991 1829.5001,-140.9909"/>
</g>
<!-- MetapoidComponent -->
<g id="node14" class="node">
<title>MetapoidComponent</title>
<polygon fill="#ffffb3" stroke="#000000" points="1752.4874,-122 1617.5126,-122 1617.5126,-86 1752.4874,-86 1752.4874,-122"/>
<text text-anchor="middle" x="1685" y="-99.8" font-family="Times,serif" font-size="14.00" fill="#000000">MetapoidComponent</text>
</g>
<!-- MetapoidComponent&#45;&gt;AppModule -->
<g id="edge14" class="edge">
<title>MetapoidComponent&#45;&gt;AppModule</title>
<path fill="none" stroke="#000000" d="M1685,-122.0511C1685,-136.373 1685,-154 1685,-154 1685,-154 1780.985,-154 1780.985,-154"/>
<polygon fill="#000000" stroke="#000000" points="1780.9851,-157.5001 1790.985,-154 1780.985,-150.5001 1780.9851,-157.5001"/>
</g>
<!-- NavbarComponent -->
<g id="node15" class="node">
<title>NavbarComponent</title>
<polygon fill="#ffffb3" stroke="#000000" points="1599.0297,-122 1476.9703,-122 1476.9703,-86 1599.0297,-86 1599.0297,-122"/>
<text text-anchor="middle" x="1538" y="-99.8" font-family="Times,serif" font-size="14.00" fill="#000000">NavbarComponent</text>
</g>
<!-- NavbarComponent&#45;&gt;AppModule -->
<g id="edge15" class="edge">
<title>NavbarComponent&#45;&gt;AppModule</title>
<path fill="none" stroke="#000000" d="M1538,-122.2396C1538,-137.5706 1538,-157 1538,-157 1538,-157 1781.047,-157 1781.047,-157"/>
<polygon fill="#000000" stroke="#000000" points="1781.047,-160.5001 1791.047,-157 1781.0469,-153.5001 1781.047,-160.5001"/>
</g>
<!-- PidgeotComponent -->
<g id="node16" class="node">
<title>PidgeotComponent</title>
<polygon fill="#ffffb3" stroke="#000000" points="1459.1108,-122 1334.8892,-122 1334.8892,-86 1459.1108,-86 1459.1108,-122"/>
<text text-anchor="middle" x="1397" y="-99.8" font-family="Times,serif" font-size="14.00" fill="#000000">PidgeotComponent</text>
</g>
<!-- PidgeotComponent&#45;&gt;AppModule -->
<g id="edge16" class="edge">
<title>PidgeotComponent&#45;&gt;AppModule</title>
<path fill="none" stroke="#000000" d="M1397,-122.027C1397,-138.3976 1397,-160 1397,-160 1397,-160 1781.1945,-160 1781.1945,-160"/>
<polygon fill="#000000" stroke="#000000" points="1781.1945,-163.5001 1791.1945,-160 1781.1945,-156.5001 1781.1945,-163.5001"/>
</g>
<!-- PidgeottoComponent -->
<g id="node17" class="node">
<title>PidgeottoComponent</title>
<polygon fill="#ffffb3" stroke="#000000" points="1316.5014,-122 1181.4986,-122 1181.4986,-86 1316.5014,-86 1316.5014,-122"/>
<text text-anchor="middle" x="1249" y="-99.8" font-family="Times,serif" font-size="14.00" fill="#000000">PidgeottoComponent</text>
</g>
<!-- PidgeottoComponent&#45;&gt;AppModule -->
<g id="edge17" class="edge">
<title>PidgeottoComponent&#45;&gt;AppModule</title>
<path fill="none" stroke="#000000" d="M1249,-122.0225C1249,-139.3734 1249,-163 1249,-163 1249,-163 1781.0002,-163 1781.0002,-163"/>
<polygon fill="#000000" stroke="#000000" points="1781.0002,-166.5001 1791.0002,-163 1781.0001,-159.5001 1781.0002,-166.5001"/>
</g>
<!-- PidgeyComponent -->
<g id="node18" class="node">
<title>PidgeyComponent</title>
<polygon fill="#ffffb3" stroke="#000000" points="1163.2204,-122 1042.7796,-122 1042.7796,-86 1163.2204,-86 1163.2204,-122"/>
<text text-anchor="middle" x="1103" y="-99.8" font-family="Times,serif" font-size="14.00" fill="#000000">PidgeyComponent</text>
</g>
<!-- PidgeyComponent&#45;&gt;AppModule -->
<g id="edge18" class="edge">
<title>PidgeyComponent&#45;&gt;AppModule</title>
<path fill="none" stroke="#000000" d="M1103,-122.302C1103,-140.2699 1103,-165 1103,-165 1103,-165 1781.1301,-165 1781.1301,-165"/>
<polygon fill="#000000" stroke="#000000" points="1781.1301,-168.5001 1791.1301,-165 1781.1301,-161.5001 1781.1301,-168.5001"/>
</g>
<!-- RaticateComponent -->
<g id="node19" class="node">
<title>RaticateComponent</title>
<polygon fill="#ffffb3" stroke="#000000" points="1024.6994,-122 897.3006,-122 897.3006,-86 1024.6994,-86 1024.6994,-122"/>
<text text-anchor="middle" x="961" y="-99.8" font-family="Times,serif" font-size="14.00" fill="#000000">RaticateComponent</text>
</g>
<!-- RaticateComponent&#45;&gt;AppModule -->
<g id="edge19" class="edge">
<title>RaticateComponent&#45;&gt;AppModule</title>
<path fill="none" stroke="#000000" d="M961,-122.1686C961,-141.0898 961,-168 961,-168 961,-168 1781.2354,-168 1781.2354,-168"/>
<polygon fill="#000000" stroke="#000000" points="1781.2354,-171.5001 1791.2354,-168 1781.2354,-164.5001 1781.2354,-171.5001"/>
</g>
<!-- RattataComponent -->
<g id="node20" class="node">
<title>RattataComponent</title>
<polygon fill="#ffffb3" stroke="#000000" points="879.4846,-122 758.5154,-122 758.5154,-86 879.4846,-86 879.4846,-122"/>
<text text-anchor="middle" x="819" y="-99.8" font-family="Times,serif" font-size="14.00" fill="#000000">RattataComponent</text>
</g>
<!-- RattataComponent&#45;&gt;AppModule -->
<g id="edge20" class="edge">
<title>RattataComponent&#45;&gt;AppModule</title>
<path fill="none" stroke="#000000" d="M819,-122.308C819,-142.1455 819,-171 819,-171 819,-171 1781.0407,-171 1781.0407,-171"/>
<polygon fill="#000000" stroke="#000000" points="1781.0407,-174.5001 1791.0407,-171 1781.0406,-167.5001 1781.0407,-174.5001"/>
</g>
<!-- SquitleComponent -->
<g id="node21" class="node">
<title>SquitleComponent</title>
<polygon fill="#ffffb3" stroke="#000000" points="740.5014,-122 619.4986,-122 619.4986,-86 740.5014,-86 740.5014,-122"/>
<text text-anchor="middle" x="680" y="-99.8" font-family="Times,serif" font-size="14.00" fill="#000000">SquitleComponent</text>
</g>
<!-- SquitleComponent&#45;&gt;AppModule -->
<g id="edge21" class="edge">
<title>SquitleComponent&#45;&gt;AppModule</title>
<path fill="none" stroke="#000000" d="M680,-122.0267C680,-142.7672 680,-174 680,-174 680,-174 1781.283,-174 1781.283,-174"/>
<polygon fill="#000000" stroke="#000000" points="1781.283,-177.5001 1791.283,-174 1781.2829,-170.5001 1781.283,-177.5001"/>
</g>
<!-- VenusaurComponent -->
<g id="node22" class="node">
<title>VenusaurComponent</title>
<polygon fill="#ffffb3" stroke="#000000" points="601.4734,-122 466.5266,-122 466.5266,-86 601.4734,-86 601.4734,-122"/>
<text text-anchor="middle" x="534" y="-99.8" font-family="Times,serif" font-size="14.00" fill="#000000">VenusaurComponent</text>
</g>
<!-- VenusaurComponent&#45;&gt;AppModule -->
<g id="edge22" class="edge">
<title>VenusaurComponent&#45;&gt;AppModule</title>
<path fill="none" stroke="#000000" d="M534,-122.1686C534,-143.498 534,-176 534,-176 534,-176 1781.2512,-176 1781.2512,-176"/>
<polygon fill="#000000" stroke="#000000" points="1781.2512,-179.5001 1791.2512,-176 1781.2511,-172.5001 1781.2512,-179.5001"/>
</g>
<!-- WatortleComponent -->
<g id="node23" class="node">
<title>WatortleComponent</title>
<polygon fill="#ffffb3" stroke="#000000" points="448.309,-122 317.691,-122 317.691,-86 448.309,-86 448.309,-122"/>
<text text-anchor="middle" x="383" y="-99.8" font-family="Times,serif" font-size="14.00" fill="#000000">WatortleComponent</text>
</g>
<!-- WatortleComponent&#45;&gt;AppModule -->
<g id="edge23" class="edge">
<title>WatortleComponent&#45;&gt;AppModule</title>
<path fill="none" stroke="#000000" d="M383,-122.1554C383,-144.3519 383,-179 383,-179 383,-179 1781.1681,-179 1781.1681,-179"/>
<polygon fill="#000000" stroke="#000000" points="1781.1681,-182.5001 1791.1681,-179 1781.168,-175.5001 1781.1681,-182.5001"/>
</g>
<!-- WeedleComponent -->
<g id="node24" class="node">
<title>WeedleComponent</title>
<polygon fill="#ffffb3" stroke="#000000" points="300.0814,-122 175.9186,-122 175.9186,-86 300.0814,-86 300.0814,-122"/>
<text text-anchor="middle" x="238" y="-99.8" font-family="Times,serif" font-size="14.00" fill="#000000">WeedleComponent</text>
</g>
<!-- WeedleComponent&#45;&gt;AppModule -->
<g id="edge24" class="edge">
<title>WeedleComponent&#45;&gt;AppModule</title>
<path fill="none" stroke="#000000" d="M238,-122.0908C238,-145.1328 238,-182 238,-182 238,-182 1781.1575,-182 1781.1575,-182"/>
<polygon fill="#000000" stroke="#000000" points="1781.1575,-185.5001 1791.1575,-182 1781.1574,-178.5001 1781.1575,-185.5001"/>
</g>
<!-- AppComponent  -->
<g id="node27" class="node">
<title>AppComponent </title>
<polygon fill="#80b1d3" stroke="#000000" points="1887.439,-252 1778.561,-252 1778.561,-216 1887.439,-216 1887.439,-252"/>
<text text-anchor="middle" x="1833" y="-229.8" font-family="Times,serif" font-size="14.00" fill="#000000">AppComponent </text>
</g>
<!-- AppModule&#45;&gt;AppComponent  -->
<g id="edge26" class="edge">
<title>AppModule&#45;&gt;AppComponent </title>
<path fill="none" stroke="#000000" stroke-dasharray="1,5" d="M1833,-187.1061C1833,-187.1061 1833,-205.991 1833,-205.991"/>
<polygon fill="#000000" stroke="#000000" points="1829.5001,-205.9909 1833,-215.991 1836.5001,-205.991 1829.5001,-205.9909"/>
</g>
<!-- AppRoutingModule -->
<g id="node26" class="node">
<title>AppRoutingModule</title>
<polygon fill="#8dd3c7" stroke="#000000" points="152.2744,-122 149.2744,-126 128.2744,-126 125.2744,-122 23.7256,-122 23.7256,-86 152.2744,-86 152.2744,-122"/>
<text text-anchor="middle" x="88" y="-99.8" font-family="Times,serif" font-size="14.00" fill="#000000">AppRoutingModule</text>
</g>
<!-- AppRoutingModule&#45;&gt;AppModule -->
<g id="edge25" class="edge">
<title>AppRoutingModule&#45;&gt;AppModule</title>
<path fill="none" stroke="#000000" d="M88,-122.3802C88,-146.2785 88,-185 88,-185 88,-185 1781.1588,-185 1781.1588,-185"/>
<polygon fill="#000000" stroke="#000000" points="1781.1589,-188.5001 1791.1588,-185 1781.1588,-181.5001 1781.1589,-188.5001"/>
</g>
</g>
</svg>
